<?xml version="1.0" standalone="no"?>
<!DOCTYPE svg PUBLIC "-//W3C//DTD SVG 20010904//EN"
 "http://www.w3.org/TR/2001/REC-SVG-20010904/DTD/svg10.dtd">
<svg version="1.0" xmlns="http://www.w3.org/2000/svg"
 width="512.000000pt" height="512.000000pt" viewBox="0 0 512.000000 512.000000"
 preserveAspectRatio="xMidYMid meet">
<metadata>
Created by potrace 1.11, written by Peter Selinger 2001-2013
</metadata>
<g transform="translate(0.000000,512.000000) scale(0.100000,-0.100000)"
fill="#000000" stroke="none">
<path d="M2533 4939 c-43 -13 -91 -63 -98 -103 -4 -18 -5 -87 -3 -152 2 -100
6 -123 23 -146 41 -55 57 -58 264 -58 l191 0 -2 -192 -3 -192 -80 -13 c-780
-130 -1413 -724 -1590 -1493 -29 -125 -55 -333 -55 -435 0 -673 342 -1299 912
-1669 246 -160 553 -265 883 -301 169 -19 374 -8 565 31 689 139 1252 637
1474 1304 138 415 138 835 0 1248 -170 510 -545 931 -1031 1159 -134 62 -306
118 -443 143 -63 12 -125 24 -138 26 l-22 4 2 187 3 187 190 1 c166 0 194 2
220 18 63 39 70 59 73 207 3 160 -7 191 -78 228 l-44 22 -591 -1 c-327 0 -604
-5 -622 -10z m807 -1269 c194 -24 419 -100 582 -197 626 -370 910 -1110 691
-1798 -169 -529 -606 -921 -1163 -1041 -121 -27 -467 -27 -590 -1 -561 118
-993 501 -1170 1036 -66 199 -90 407 -71 608 37 376 182 685 446 948 165 165
345 283 548 360 216 81 494 113 727 85z"/>
<path d="M3097 2822 c-15 -16 -17 -51 -17 -279 0 -251 -1 -261 -21 -279 -102
-93 -37 -264 101 -264 l45 0 277 -277 c262 -262 279 -277 314 -277 26 0 42 7
55 23 42 51 37 57 -261 356 -279 280 -280 281 -280 323 0 52 -19 91 -60 125
l-30 26 0 254 c0 233 -1 255 -18 270 -25 23 -85 22 -105 -1z"/>
</g>
</svg>
